<svg id="visual" viewBox="0 0 960 150" width="960" height="150" xmlns="http://www.w3.org/2000/svg" xmlns:xlink="http://www.w3.org/1999/xlink" version="1.1"><rect x="0" y="0" width="960" height="150" fill="#200019"></rect><path d="M0 119L13.3 115C26.7 111 53.3 103 80 99C106.7 95 133.3 95 160 97C186.7 99 213.3 103 240 103C266.7 103 293.3 99 320 96.7C346.7 94.3 373.3 93.7 400 95.8C426.7 98 453.3 103 480 107.3C506.7 111.7 533.3 115.3 560 112C586.7 108.7 613.3 98.3 640 91.3C666.7 84.3 693.3 80.7 720 80C746.7 79.3 773.3 81.7 800 82.7C826.7 83.7 853.3 83.3 880 83.2C906.7 83 933.3 83 946.7 83L960 83L960 0L946.7 0C933.3 0 906.7 0 880 0C853.3 0 826.7 0 800 0C773.3 0 746.7 0 720 0C693.3 0 666.7 0 640 0C613.3 0 586.7 0 560 0C533.3 0 506.7 0 480 0C453.3 0 426.7 0 400 0C373.3 0 346.7 0 320 0C293.3 0 266.7 0 240 0C213.3 0 186.7 0 160 0C133.3 0 106.7 0 80 0C53.3 0 26.7 0 13.3 0L0 0Z" fill="#1b002f"></path><path d="M0 68L13.3 68.2C26.7 68.3 53.3 68.7 80 69.5C106.7 70.3 133.3 71.7 160 75.2C186.7 78.7 213.3 84.3 240 86.2C266.7 88 293.3 86 320 81.2C346.7 76.3 373.3 68.7 400 69.8C426.7 71 453.3 81 480 85C506.7 89 533.3 87 560 85.5C586.7 84 613.3 83 640 82.7C666.7 82.3 693.3 82.7 720 85.3C746.7 88 773.3 93 800 92.8C826.7 92.7 853.3 87.3 880 82.8C906.7 78.3 933.3 74.7 946.7 72.8L960 71L960 0L946.7 0C933.3 0 906.7 0 880 0C853.3 0 826.7 0 800 0C773.3 0 746.7 0 720 0C693.3 0 666.7 0 640 0C613.3 0 586.7 0 560 0C533.3 0 506.7 0 480 0C453.3 0 426.7 0 400 0C373.3 0 346.7 0 320 0C293.3 0 266.7 0 240 0C213.3 0 186.7 0 160 0C133.3 0 106.7 0 80 0C53.3 0 26.7 0 13.3 0L0 0Z" fill="#4d0443"></path><path d="M0 76L13.3 76.2C26.7 76.3 53.3 76.7 80 76.3C106.7 76 133.3 75 160 71C186.7 67 213.3 60 240 58.8C266.7 57.7 293.3 62.3 320 66C346.7 69.7 373.3 72.3 400 73C426.7 73.7 453.3 72.3 480 68C506.7 63.7 533.3 56.3 560 55.8C586.7 55.3 613.3 61.7 640 66C666.7 70.3 693.3 72.7 720 69C746.7 65.3 773.3 55.7 800 52.5C826.7 49.3 853.3 52.7 880 54.3C906.7 56 933.3 56 946.7 56L960 56L960 0L946.7 0C933.3 0 906.7 0 880 0C853.3 0 826.7 0 800 0C773.3 0 746.7 0 720 0C693.3 0 666.7 0 640 0C613.3 0 586.7 0 560 0C533.3 0 506.7 0 480 0C453.3 0 426.7 0 400 0C373.3 0 346.7 0 320 0C293.3 0 266.7 0 240 0C213.3 0 186.7 0 160 0C133.3 0 106.7 0 80 0C53.3 0 26.7 0 13.3 0L0 0Z" fill="#83004a"></path><path d="M0 51L13.3 50C26.7 49 53.3 47 80 44.5C106.7 42 133.3 39 160 38.5C186.7 38 213.3 40 240 40.7C266.7 41.3 293.3 40.7 320 39.8C346.7 39 373.3 38 400 38.2C426.7 38.3 453.3 39.7 480 38.7C506.7 37.7 533.3 34.3 560 32.3C586.7 30.3 613.3 29.7 640 32.3C666.7 35 693.3 41 720 43.5C746.7 46 773.3 45 800 44C826.7 43 853.3 42 880 40.7C906.7 39.3 933.3 37.7 946.7 36.8L960 36L960 0L946.7 0C933.3 0 906.7 0 880 0C853.3 0 826.7 0 800 0C773.3 0 746.7 0 720 0C693.3 0 666.7 0 640 0C613.3 0 586.7 0 560 0C533.3 0 506.7 0 480 0C453.3 0 426.7 0 400 0C373.3 0 346.7 0 320 0C293.3 0 266.7 0 240 0C213.3 0 186.7 0 160 0C133.3 0 106.7 0 80 0C53.3 0 26.7 0 13.3 0L0 0Z" fill="#b51544"></path><path d="M0 27L13.3 25.8C26.7 24.7 53.3 22.3 80 20.3C106.7 18.3 133.3 16.7 160 16.5C186.7 16.3 213.3 17.7 240 20.2C266.7 22.7 293.3 26.3 320 28.2C346.7 30 373.3 30 400 30.7C426.7 31.3 453.3 32.7 480 30.8C506.7 29 533.3 24 560 21.7C586.7 19.3 613.3 19.7 640 19.2C666.7 18.7 693.3 17.3 720 15.7C746.7 14 773.3 12 800 13.8C826.7 15.7 853.3 21.3 880 22.5C906.7 23.7 933.3 20.3 946.7 18.7L960 17L960 0L946.7 0C933.3 0 906.7 0 880 0C853.3 0 826.7 0 800 0C773.3 0 746.7 0 720 0C693.3 0 666.7 0 640 0C613.3 0 586.7 0 560 0C533.3 0 506.7 0 480 0C453.3 0 426.7 0 400 0C373.3 0 346.7 0 320 0C293.3 0 266.7 0 240 0C213.3 0 186.7 0 160 0C133.3 0 106.7 0 80 0C53.3 0 26.7 0 13.3 0L0 0Z" fill="#dd3f31"></path></svg>