<svg id="visual" viewBox="0 0 960 300" width="960" height="300" xmlns="http://www.w3.org/2000/svg" xmlns:xlink="http://www.w3.org/1999/xlink" version="1.1"><rect x="0" y="0" width="960" height="300" fill="#001220"></rect><path d="M0 91L22.8 94.5C45.7 98 91.3 105 137 110.3C182.7 115.7 228.3 119.3 274 114C319.7 108.7 365.3 94.3 411.2 88.2C457 82 503 84 548.8 85.5C594.7 87 640.3 88 686 88.7C731.7 89.3 777.3 89.7 823 90C868.7 90.3 914.3 90.7 937.2 90.8L960 91L960 0L937.2 0C914.3 0 868.7 0 823 0C777.3 0 731.7 0 686 0C640.3 0 594.7 0 548.8 0C503 0 457 0 411.2 0C365.3 0 319.7 0 274 0C228.3 0 182.7 0 137 0C91.3 0 45.7 0 22.8 0L0 0Z" fill="#1b002f"></path><path d="M0 89L22.8 86.3C45.7 83.7 91.3 78.3 137 80C182.7 81.7 228.3 90.3 274 91.7C319.7 93 365.3 87 411.2 80.5C457 74 503 67 548.8 69.2C594.7 71.3 640.3 82.7 686 87.7C731.7 92.7 777.3 91.3 823 87.7C868.7 84 914.3 78 937.2 75L960 72L960 0L937.2 0C914.3 0 868.7 0 823 0C777.3 0 731.7 0 686 0C640.3 0 594.7 0 548.8 0C503 0 457 0 411.2 0C365.3 0 319.7 0 274 0C228.3 0 182.7 0 137 0C91.3 0 45.7 0 22.8 0L0 0Z" fill="#4d0443"></path><path d="M0 58L22.8 60.7C45.7 63.3 91.3 68.7 137 66.7C182.7 64.7 228.3 55.3 274 50.2C319.7 45 365.3 44 411.2 44C457 44 503 45 548.8 50.5C594.7 56 640.3 66 686 66C731.7 66 777.3 56 823 55C868.7 54 914.3 62 937.2 66L960 70L960 0L937.2 0C914.3 0 868.7 0 823 0C777.3 0 731.7 0 686 0C640.3 0 594.7 0 548.8 0C503 0 457 0 411.2 0C365.3 0 319.7 0 274 0C228.3 0 182.7 0 137 0C91.3 0 45.7 0 22.8 0L0 0Z" fill="#83004a"></path><path d="M0 33L22.8 37C45.7 41 91.3 49 137 48.2C182.7 47.3 228.3 37.7 274 37.5C319.7 37.3 365.3 46.7 411.2 49.5C457 52.3 503 48.7 548.8 44.2C594.7 39.7 640.3 34.3 686 33C731.7 31.7 777.3 34.3 823 38.5C868.7 42.7 914.3 48.3 937.2 51.2L960 54L960 0L937.2 0C914.3 0 868.7 0 823 0C777.3 0 731.7 0 686 0C640.3 0 594.7 0 548.8 0C503 0 457 0 411.2 0C365.3 0 319.7 0 274 0C228.3 0 182.7 0 137 0C91.3 0 45.7 0 22.8 0L0 0Z" fill="#b51544"></path><path d="M0 33L22.8 29.8C45.7 26.7 91.3 20.3 137 18.3C182.7 16.3 228.3 18.7 274 22C319.7 25.3 365.3 29.7 411.2 30C457 30.3 503 26.7 548.8 26.5C594.7 26.3 640.3 29.7 686 31.7C731.7 33.7 777.3 34.3 823 32C868.7 29.7 914.3 24.3 937.2 21.7L960 19L960 0L937.2 0C914.3 0 868.7 0 823 0C777.3 0 731.7 0 686 0C640.3 0 594.7 0 548.8 0C503 0 457 0 411.2 0C365.3 0 319.7 0 274 0C228.3 0 182.7 0 137 0C91.3 0 45.7 0 22.8 0L0 0Z" fill="#dd3f31"></path></svg>