<svg id="visual" viewBox="0 0 960 300" width="960" height="300" xmlns="http://www.w3.org/2000/svg" xmlns:xlink="http://www.w3.org/1999/xlink" version="1.1"><rect x="0" y="0" width="960" height="300" fill="#001220"></rect><path d="M0 123L13.3 123.3C26.7 123.7 53.3 124.3 80 122.3C106.7 120.3 133.3 115.7 160 116.5C186.7 117.3 213.3 123.7 240 121.3C266.7 119 293.3 108 320 108.2C346.7 108.3 373.3 119.7 400 124.3C426.7 129 453.3 127 480 121.5C506.7 116 533.3 107 560 103.5C586.7 100 613.3 102 640 100.3C666.7 98.7 693.3 93.3 720 97.2C746.7 101 773.3 114 800 118.7C826.7 123.3 853.3 119.7 880 113.7C906.7 107.7 933.3 99.3 946.7 95.2L960 91L960 0L946.7 0C933.3 0 906.7 0 880 0C853.3 0 826.7 0 800 0C773.3 0 746.7 0 720 0C693.3 0 666.7 0 640 0C613.3 0 586.7 0 560 0C533.3 0 506.7 0 480 0C453.3 0 426.7 0 400 0C373.3 0 346.7 0 320 0C293.3 0 266.7 0 240 0C213.3 0 186.7 0 160 0C133.3 0 106.7 0 80 0C53.3 0 26.7 0 13.3 0L0 0Z" fill="#1b002f"></path><path d="M0 66L13.3 67.2C26.7 68.3 53.3 70.7 80 71.7C106.7 72.7 133.3 72.3 160 74.8C186.7 77.3 213.3 82.7 240 88C266.7 93.3 293.3 98.7 320 96.7C346.7 94.7 373.3 85.3 400 82.5C426.7 79.7 453.3 83.3 480 87.3C506.7 91.3 533.3 95.7 560 94.3C586.7 93 613.3 86 640 82.7C666.7 79.3 693.3 79.7 720 82C746.7 84.3 773.3 88.7 800 92C826.7 95.3 853.3 97.7 880 96.2C906.7 94.7 933.3 89.3 946.7 86.7L960 84L960 0L946.7 0C933.3 0 906.7 0 880 0C853.3 0 826.7 0 800 0C773.3 0 746.7 0 720 0C693.3 0 666.7 0 640 0C613.3 0 586.7 0 560 0C533.3 0 506.7 0 480 0C453.3 0 426.7 0 400 0C373.3 0 346.7 0 320 0C293.3 0 266.7 0 240 0C213.3 0 186.7 0 160 0C133.3 0 106.7 0 80 0C53.3 0 26.7 0 13.3 0L0 0Z" fill="#4d0443"></path><path d="M0 81L13.3 79.3C26.7 77.7 53.3 74.3 80 69.2C106.7 64 133.3 57 160 57C186.7 57 213.3 64 240 64.5C266.7 65 293.3 59 320 55.7C346.7 52.3 373.3 51.7 400 53.7C426.7 55.7 453.3 60.3 480 63.3C506.7 66.3 533.3 67.7 560 68.5C586.7 69.3 613.3 69.7 640 66.3C666.7 63 693.3 56 720 52.8C746.7 49.7 773.3 50.3 800 51.7C826.7 53 853.3 55 880 54.5C906.7 54 933.3 51 946.7 49.5L960 48L960 0L946.7 0C933.3 0 906.7 0 880 0C853.3 0 826.7 0 800 0C773.3 0 746.7 0 720 0C693.3 0 666.7 0 640 0C613.3 0 586.7 0 560 0C533.3 0 506.7 0 480 0C453.3 0 426.7 0 400 0C373.3 0 346.7 0 320 0C293.3 0 266.7 0 240 0C213.3 0 186.7 0 160 0C133.3 0 106.7 0 80 0C53.3 0 26.7 0 13.3 0L0 0Z" fill="#83004a"></path><path d="M0 43L13.3 43.5C26.7 44 53.3 45 80 46.3C106.7 47.7 133.3 49.3 160 46.3C186.7 43.3 213.3 35.7 240 35.3C266.7 35 293.3 42 320 45.2C346.7 48.3 373.3 47.7 400 47.3C426.7 47 453.3 47 480 45.3C506.7 43.7 533.3 40.3 560 39.7C586.7 39 613.3 41 640 39.7C666.7 38.3 693.3 33.7 720 34.8C746.7 36 773.3 43 800 47C826.7 51 853.3 52 880 50.3C906.7 48.7 933.3 44.3 946.7 42.2L960 40L960 0L946.7 0C933.3 0 906.7 0 880 0C853.3 0 826.7 0 800 0C773.3 0 746.7 0 720 0C693.3 0 666.7 0 640 0C613.3 0 586.7 0 560 0C533.3 0 506.7 0 480 0C453.3 0 426.7 0 400 0C373.3 0 346.7 0 320 0C293.3 0 266.7 0 240 0C213.3 0 186.7 0 160 0C133.3 0 106.7 0 80 0C53.3 0 26.7 0 13.3 0L0 0Z" fill="#b51544"></path><path d="M0 39L13.3 34.8C26.7 30.7 53.3 22.3 80 19.7C106.7 17 133.3 20 160 24.2C186.7 28.3 213.3 33.7 240 33C266.7 32.3 293.3 25.7 320 23.2C346.7 20.7 373.3 22.3 400 21.7C426.7 21 453.3 18 480 17.3C506.7 16.7 533.3 18.3 560 22.2C586.7 26 613.3 32 640 30.3C666.7 28.7 693.3 19.3 720 17C746.7 14.7 773.3 19.3 800 23.7C826.7 28 853.3 32 880 32.3C906.7 32.7 933.3 29.3 946.7 27.7L960 26L960 0L946.7 0C933.3 0 906.7 0 880 0C853.3 0 826.7 0 800 0C773.3 0 746.7 0 720 0C693.3 0 666.7 0 640 0C613.3 0 586.7 0 560 0C533.3 0 506.7 0 480 0C453.3 0 426.7 0 400 0C373.3 0 346.7 0 320 0C293.3 0 266.7 0 240 0C213.3 0 186.7 0 160 0C133.3 0 106.7 0 80 0C53.3 0 26.7 0 13.3 0L0 0Z" fill="#dd3f31"></path></svg>