<svg id="visual" viewBox="0 0 960 300" width="960" height="300" xmlns="http://www.w3.org/2000/svg" xmlns:xlink="http://www.w3.org/1999/xlink" version="1.1"><rect x="0" y="0" width="960" height="300" fill="#001220"></rect><path d="M0 223L13.3 223.5C26.7 224 53.3 225 80 221.3C106.7 217.7 133.3 209.3 160 210.7C186.7 212 213.3 223 240 218.8C266.7 214.7 293.3 195.3 320 195.8C346.7 196.3 373.3 216.7 400 225C426.7 233.3 453.3 229.7 480 219.7C506.7 209.7 533.3 193.3 560 187C586.7 180.7 613.3 184.3 640 181.2C666.7 178 693.3 168 720 174.8C746.7 181.7 773.3 205.3 800 214C826.7 222.7 853.3 216.3 880 205.7C906.7 195 933.3 180 946.7 172.5L960 165L960 0L946.7 0C933.3 0 906.7 0 880 0C853.3 0 826.7 0 800 0C773.3 0 746.7 0 720 0C693.3 0 666.7 0 640 0C613.3 0 586.7 0 560 0C533.3 0 506.7 0 480 0C453.3 0 426.7 0 400 0C373.3 0 346.7 0 320 0C293.3 0 266.7 0 240 0C213.3 0 186.7 0 160 0C133.3 0 106.7 0 80 0C53.3 0 26.7 0 13.3 0L0 0Z" fill="#1b002f"></path><path d="M0 120L13.3 122C26.7 124 53.3 128 80 129.7C106.7 131.3 133.3 130.7 160 135.2C186.7 139.7 213.3 149.3 240 159C266.7 168.7 293.3 178.3 320 174.8C346.7 171.3 373.3 154.7 400 149.5C426.7 144.3 453.3 150.7 480 157.8C506.7 165 533.3 173 560 170.7C586.7 168.3 613.3 155.7 640 149.5C666.7 143.3 693.3 143.7 720 148C746.7 152.3 773.3 160.7 800 166.7C826.7 172.7 853.3 176.3 880 173.5C906.7 170.7 933.3 161.3 946.7 156.7L960 152L960 0L946.7 0C933.3 0 906.7 0 880 0C853.3 0 826.7 0 800 0C773.3 0 746.7 0 720 0C693.3 0 666.7 0 640 0C613.3 0 586.7 0 560 0C533.3 0 506.7 0 480 0C453.3 0 426.7 0 400 0C373.3 0 346.7 0 320 0C293.3 0 266.7 0 240 0C213.3 0 186.7 0 160 0C133.3 0 106.7 0 80 0C53.3 0 26.7 0 13.3 0L0 0Z" fill="#4d0443"></path><path d="M0 147L13.3 143.8C26.7 140.7 53.3 134.3 80 124.8C106.7 115.3 133.3 102.7 160 102.8C186.7 103 213.3 116 240 117C266.7 118 293.3 107 320 100.8C346.7 94.7 373.3 93.3 400 97C426.7 100.7 453.3 109.3 480 115C506.7 120.7 533.3 123.3 560 124.8C586.7 126.3 613.3 126.7 640 120.7C666.7 114.7 693.3 102.3 720 96.7C746.7 91 773.3 92 800 94.2C826.7 96.3 853.3 99.7 880 98.8C906.7 98 933.3 93 946.7 90.5L960 88L960 0L946.7 0C933.3 0 906.7 0 880 0C853.3 0 826.7 0 800 0C773.3 0 746.7 0 720 0C693.3 0 666.7 0 640 0C613.3 0 586.7 0 560 0C533.3 0 506.7 0 480 0C453.3 0 426.7 0 400 0C373.3 0 346.7 0 320 0C293.3 0 266.7 0 240 0C213.3 0 186.7 0 160 0C133.3 0 106.7 0 80 0C53.3 0 26.7 0 13.3 0L0 0Z" fill="#83004a"></path><path d="M0 78L13.3 78.8C26.7 79.7 53.3 81.3 80 83.7C106.7 86 133.3 89 160 83.7C186.7 78.3 213.3 64.7 240 64.2C266.7 63.7 293.3 76.3 320 82C346.7 87.7 373.3 86.3 400 85.7C426.7 85 453.3 85 480 82.2C506.7 79.3 533.3 73.7 560 72.7C586.7 71.7 613.3 75.3 640 73C666.7 70.7 693.3 62.3 720 64.3C746.7 66.3 773.3 78.7 800 85.7C826.7 92.7 853.3 94.3 880 91.3C906.7 88.3 933.3 80.7 946.7 76.8L960 73L960 0L946.7 0C933.3 0 906.7 0 880 0C853.3 0 826.7 0 800 0C773.3 0 746.7 0 720 0C693.3 0 666.7 0 640 0C613.3 0 586.7 0 560 0C533.3 0 506.7 0 480 0C453.3 0 426.7 0 400 0C373.3 0 346.7 0 320 0C293.3 0 266.7 0 240 0C213.3 0 186.7 0 160 0C133.3 0 106.7 0 80 0C53.3 0 26.7 0 13.3 0L0 0Z" fill="#b51544"></path><path d="M0 70L13.3 62.8C26.7 55.7 53.3 41.3 80 36.8C106.7 32.3 133.3 37.7 160 45C186.7 52.3 213.3 61.7 240 60.3C266.7 59 293.3 47 320 42.3C346.7 37.7 373.3 40.3 400 39.2C426.7 38 453.3 33 480 32C506.7 31 533.3 34 560 41C586.7 48 613.3 59 640 56C666.7 53 693.3 36 720 31.7C746.7 27.3 773.3 35.7 800 43.5C826.7 51.3 853.3 58.7 880 59.3C906.7 60 933.3 54 946.7 51L960 48L960 0L946.7 0C933.3 0 906.7 0 880 0C853.3 0 826.7 0 800 0C773.3 0 746.7 0 720 0C693.3 0 666.7 0 640 0C613.3 0 586.7 0 560 0C533.3 0 506.7 0 480 0C453.3 0 426.7 0 400 0C373.3 0 346.7 0 320 0C293.3 0 266.7 0 240 0C213.3 0 186.7 0 160 0C133.3 0 106.7 0 80 0C53.3 0 26.7 0 13.3 0L0 0Z" fill="#dd3f31"></path></svg>