<?xml version="1.0" standalone="no"?>
<!DOCTYPE svg PUBLIC "-//W3C//DTD SVG 20010904//EN"
 "http://www.w3.org/TR/2001/REC-SVG-20010904/DTD/svg10.dtd">
<svg version="1.0" xmlns="http://www.w3.org/2000/svg"
 width="1280.000000pt" height="129.000000pt" viewBox="0 0 1280.000000 129.000000"
 preserveAspectRatio="xMidYMid meet">

<g transform="translate(0.000000,129.000000) scale(0.100000,-0.100000)"
fill="#000000" stroke="none">
<path d="M2615 1284 c-33 -2 -145 -8 -250 -14 -787 -44 -1611 -184 -2235 -380
l-130 -41 0 -424 0 -425 6400 0 6400 0 0 421 c0 396 -1 421 -17 416 -10 -2
-84 -25 -165 -51 -488 -152 -1184 -282 -1828 -340 -382 -35 -536 -41 -1045
-41 -530 0 -711 7 -1129 46 -752 69 -1353 176 -2231 399 -953 241 -1682 360
-2590 421 -154 10 -1057 20 -1180 13z"/>
</g>
</svg>
